<?xml version="1.0" standalone="no"?>
<!DOCTYPE svg PUBLIC "-//W3C//DTD SVG 20010904//EN"
 "http://www.w3.org/TR/2001/REC-SVG-20010904/DTD/svg10.dtd">
<svg version="1.0" xmlns="http://www.w3.org/2000/svg"
 width="400.000000pt" height="400.000000pt" viewBox="0 0 400.000000 400.000000"
 preserveAspectRatio="xMidYMid meet">
<metadata>
Created by potrace 1.11, written by Peter Selinger 2001-2013
</metadata>
<g transform="translate(0.000000,400.000000) scale(0.100000,-0.100000)"
fill="#000000" stroke="none">
<path d="M2220 3755 c-30 -7 -122 -29 -205 -48 -82 -19 -295 -69 -473 -111
-178 -42 -328 -76 -335 -76 -42 -1 -41 -9 37 -330 13 -58 27 -117 30 -132 3
-16 8 -40 12 -55 3 -15 8 -31 11 -36 4 -6 -10 -8 -36 -3 -160 25 -212 17 -230
-36 -12 -33 -10 -38 119 -408 40 -113 76 -216 80 -230 5 -14 41 -117 80 -230
40 -113 76 -216 80 -230 38 -116 141 -404 154 -428 33 -64 134 -142 211 -164
27 -7 272 -11 785 -11 692 0 749 1 800 18 99 32 177 100 217 186 33 71 42 93
247 582 180 429 197 473 194 519 -3 56 -28 84 -80 91 -48 5 -51 -9 44 200 18
39 27 71 22 76 -5 4 -88 43 -184 86 -96 43 -206 93 -245 110 -38 18 -140 64
-225 103 -85 38 -180 81 -210 95 -30 14 -81 37 -113 51 l-58 26 -35 -75 -34
-75 -137 4 c-76 2 -181 5 -234 5 l-97 1 -7 38 c-5 20 -9 42 -11 47 -6 23 -36
151 -39 165 -2 8 -17 75 -34 148 -17 73 -31 135 -31 138 0 5 -4 5 -70 -11z
m-375 -2275 c-3 -5 -14 -6 -26 -3 -15 4 -17 8 -8 13 15 10 41 1 34 -10z"/>
<path d="M97 3393 c-9 -15 -87 -216 -85 -218 4 -2 218 -87 373 -148 l140 -55
38 -108 c62 -175 148 -418 151 -429 2 -5 6 -17 9 -25 3 -8 34 -96 67 -195 34
-99 65 -189 70 -200 5 -11 18 -49 30 -85 28 -81 154 -443 170 -488 14 -38 10
-61 -45 -270 -45 -173 -41 -225 24 -295 45 -49 83 -59 234 -62 76 -1 141 -6
145 -10 4 -4 -4 -15 -18 -24 -52 -34 -87 -72 -115 -123 -26 -47 -30 -63 -29
-138 0 -68 4 -93 22 -127 54 -103 139 -161 250 -170 88 -7 163 21 226 82 64
62 90 123 90 215 1 87 -20 140 -80 209 -43 50 -52 77 -26 82 41 9 1586 2 1589
-7 2 -6 -16 -25 -41 -43 -78 -59 -115 -128 -120 -226 -11 -221 212 -376 418
-290 59 25 138 110 160 173 37 106 9 230 -71 314 l-35 36 -2 144 c-2 151 -6
166 -53 210 -68 64 -175 50 -224 -29 l-21 -33 -813 0 -813 0 -11 28 c-7 16
-30 39 -53 52 -73 41 -157 22 -201 -45 l-22 -35 -92 0 c-51 0 -93 2 -93 4 0 3
4 16 10 31 5 14 12 36 14 48 2 12 18 77 36 143 l32 121 -25 74 c-14 41 -58
166 -97 279 -39 113 -107 306 -150 430 -43 124 -111 317 -150 430 -39 113 -94
269 -121 348 -27 79 -59 156 -71 172 -18 25 -71 49 -312 145 -160 63 -294 115
-298 115 -4 0 -9 -3 -11 -7z"/>
</g>
</svg>
